<svg viewBox="0 0 117 40" fill="none" xmlns="http://www.w3.org/2000/svg">
    <g clip-path="url(#clip0_567_10202)">
        <path d="M27.1993 21.2545C27.151 16.193 31.3344 13.7612 31.5226 13.6453C29.1679 10.2051 25.5105 9.7322 24.2077 9.67913C21.0956 9.36067 18.133 11.5127 16.5503 11.5127C14.9677 11.5127 12.531 9.72255 9.9496 9.77563C6.55273 9.82388 3.42125 11.7491 1.66974 14.7889C-1.85257 20.8975 0.772275 29.9686 4.21256 34.9337C5.89652 37.3607 7.89411 40.0965 10.5286 39.9952C13.0666 39.8938 14.022 38.3546 17.0811 38.3546C20.1402 38.3546 21.0039 39.9952 23.6818 39.9469C26.408 39.8938 28.1354 37.4668 29.8048 35.0302C31.7252 32.2075 32.5214 29.4813 32.5696 29.3365C32.5069 29.3124 27.2572 27.3004 27.1993 21.2545Z" fill="black"/>
        <path d="M22.1667 6.38842C23.566 4.69481 24.5069 2.34499 24.2512 0C22.2391 0.0820265 19.8024 1.34138 18.3597 3.03498C17.0666 4.53076 15.9327 6.92401 16.2415 9.22075C18.4755 9.39445 20.7723 8.0772 22.1667 6.38842ZM44.8447 26.2292L42.5286 33.2497H39.5515L47.1317 10.9385H50.6058L58.215 33.2497H55.1366L52.753 26.2292H44.8447ZM52.1595 23.9759L49.9786 17.5537C49.4816 16.0965 49.1535 14.7744 48.8205 13.4813H48.7578C48.4249 14.8034 48.063 16.1592 47.6336 17.5199L45.4526 23.9711L52.1595 23.9759ZM60.4731 22.456C60.4731 20.4053 60.4104 18.7455 60.338 17.2256H62.9532L63.0883 19.9759H63.1511C64.3428 18.0217 66.2295 16.8637 68.8447 16.8637C72.7192 16.8637 75.6287 20.1399 75.6287 25.0084C75.6287 30.7696 72.1209 33.6116 68.3477 33.6116C66.2295 33.6116 64.3766 32.6852 63.4164 31.0977H63.3537V39.8022H60.4731V22.456ZM63.3489 26.7262C63.3489 27.1604 63.4116 27.5513 63.484 27.918C64.0147 29.9349 65.7663 31.3293 67.8555 31.3293C70.9339 31.3293 72.724 28.8154 72.724 25.1387C72.724 21.9252 71.0353 19.1846 67.9568 19.1846C65.9737 19.1846 64.1209 20.608 63.5515 22.7937C63.4502 23.1556 63.3537 23.5899 63.3537 23.9855L63.3489 26.7262ZM78.6396 22.456C78.6396 20.4053 78.5769 18.7455 78.5045 17.2256H81.1197L81.2548 19.9759H81.3175C82.5093 18.0217 84.3959 16.8637 87.0111 16.8637C90.8857 16.8637 93.7952 20.1399 93.7952 25.0084C93.7952 30.7696 90.2874 33.6116 86.5141 33.6116C84.3959 33.6116 82.5431 32.6852 81.5829 31.0977H81.5202V39.8022H78.6396V22.456ZM81.5202 26.7262C81.5202 27.1604 81.5829 27.5513 81.6553 27.918C82.186 29.9349 83.9375 31.3293 86.0268 31.3293C89.1052 31.3293 90.8953 28.8154 90.8953 25.1387C90.8953 21.9252 89.2065 19.1846 86.1281 19.1846C84.145 19.1846 82.2922 20.608 81.7228 22.7937C81.6215 23.1556 81.525 23.5899 81.525 23.9855L81.5202 26.7262ZM96.8109 9.74668H99.7252V33.2449H96.8109V9.74668ZM105.583 25.766C105.646 29.7033 108.164 31.3293 111.074 31.3293C113.158 31.3293 114.418 30.9674 115.508 30.5042L116.005 32.5887C114.982 33.0519 113.226 33.5826 110.678 33.5826C105.747 33.5826 102.799 30.3402 102.799 25.5054C102.799 20.6707 105.646 16.8637 110.311 16.8637C115.542 16.8637 116.932 21.462 116.932 24.4101C116.932 25.0084 116.869 25.4668 116.83 25.766H105.583ZM114.123 23.6815C114.157 21.8287 113.361 18.9481 110.085 18.9481C107.137 18.9481 105.848 21.6647 105.617 23.6815H114.123Z" fill="black"/>
    </g>
    <defs>
        <clipPath id="clip0_567_10202">
            <rect width="116.936" height="40" fill="white"/>
        </clipPath>
    </defs>
</svg>
