<svg width="100" height="100" viewBox="0 0 100 100" fill="none" xmlns="http://www.w3.org/2000/svg">
<path fill-rule="evenodd" clip-rule="evenodd" d="M83.5208 42.3583C84.0792 44.8167 84.375 47.375 84.375 50C84.375 68.9708 68.9708 84.375 50 84.375C31.0292 84.375 15.625 68.9708 15.625 50C15.625 31.0292 31.0292 15.625 50 15.625C52.625 15.625 55.1833 15.9208 57.6417 16.4792C59.3208 16.8625 61 15.8042 61.3792 14.125C61.7625 12.4417 60.7083 10.7667 59.025 10.3833C56.1208 9.725 53.1 9.375 50 9.375C27.5792 9.375 9.375 27.5792 9.375 50C9.375 72.4208 27.5792 90.625 50 90.625C72.4208 90.625 90.625 72.4208 90.625 50C90.625 46.9 90.275 43.8792 89.6167 40.975C89.2333 39.2917 87.5583 38.2375 85.875 38.6208C84.1958 39 83.1375 40.6792 83.5208 42.3583Z" fill="#6879FF"/>
<path fill-rule="evenodd" clip-rule="evenodd" d="M67.7075 50.0016C67.7075 59.7766 59.7742 67.7099 49.9992 67.7099C40.2242 67.7099 32.2908 59.7766 32.2908 50.0016C32.2908 40.2266 40.2242 32.2933 49.9992 32.2933C51.7242 32.2933 53.1242 30.8933 53.1242 29.1683C53.1242 27.4433 51.7242 26.0433 49.9992 26.0433C36.7742 26.0433 26.0408 36.7766 26.0408 50.0016C26.0408 63.2266 36.7742 73.9599 49.9992 73.9599C63.2242 73.9599 73.9575 63.2266 73.9575 50.0016C73.9575 48.2766 72.5575 46.8766 70.8325 46.8766C69.1075 46.8766 67.7075 48.2766 67.7075 50.0016Z" fill="#6879FF"/>
<path fill-rule="evenodd" clip-rule="evenodd" d="M61.1925 34.3869L52.4508 43.1286C51.6841 42.8578 50.8591 42.7078 50.0008 42.7078C45.9758 42.7078 42.7091 45.9745 42.7091 49.9995C42.7091 54.0245 45.9758 57.2911 50.0008 57.2911C54.0258 57.2911 57.2925 54.0245 57.2925 49.9995C57.2925 49.1411 57.1425 48.3161 56.8716 47.5495L65.6133 38.8078L74.3883 40.5619C75.4133 40.7703 76.4716 40.4494 77.2091 39.7078L89.7091 27.2078C90.4216 26.4994 90.7466 25.4911 90.5841 24.4994C90.4258 23.5078 89.7966 22.6536 88.8966 22.2036L81.4966 18.5036L77.7966 11.1036C77.3466 10.2036 76.4925 9.57443 75.5008 9.4161C74.5091 9.2536 73.5008 9.5786 72.7925 10.2911L60.2925 22.7911C59.5508 23.5286 59.23 24.5869 59.4383 25.6119L61.1925 34.3869ZM74.1466 17.7744L76.3716 22.2286C76.6758 22.8369 77.1633 23.3244 77.7716 23.6286L82.2258 25.8536L73.9716 34.1078L67.2383 32.7619L65.8925 26.0286L74.1466 17.7744Z" fill="#6879FF"/>
</svg>
