<svg viewBox="0 0 204 40" fill="none" xmlns="http://www.w3.org/2000/svg">
    <g clip-path="url(#clip0_567_10193)">
        <path d="M199.915 16.8246L196.165 26.3746H196.053L192.14 16.8246H188.603L194.465 30.1746L191.115 37.5996H194.553L203.59 16.8246H199.915ZM173.415 8.89959H170.14V30.9246H173.415V8.89959ZM161.09 8.89959H153.215V30.9246H156.515V22.5871H161.103C162.028 22.6187 162.95 22.4664 163.815 22.1388C164.681 21.8112 165.472 21.3149 166.145 20.6788C166.817 20.0427 167.356 19.2794 167.731 18.4332C168.105 17.587 168.308 16.6748 168.328 15.7496C168.308 14.8227 168.105 13.9089 167.73 13.0612C167.354 12.2135 166.814 11.4488 166.141 10.8115C165.468 10.1743 164.674 9.67708 163.807 9.34886C162.94 9.02065 162.017 8.86793 161.09 8.89959ZM161.178 19.5121H156.515V12.0121H161.19C162.185 12.0121 163.139 12.4072 163.842 13.1104C164.545 13.8137 164.94 14.7675 164.94 15.7621C164.94 16.7567 164.545 17.7105 163.842 18.4137C163.139 19.117 162.185 19.5121 161.19 19.5121H161.178ZM181.49 16.3496C180.291 16.2808 179.097 16.5634 178.056 17.1629C177.014 17.7624 176.171 18.6527 175.628 19.7246L178.553 20.9746C178.842 20.4446 179.281 20.0109 179.814 19.7266C180.347 19.4424 180.951 19.32 181.553 19.3746C181.966 19.3332 182.383 19.3739 182.78 19.4943C183.177 19.6146 183.547 19.8124 183.868 20.076C184.188 20.3397 184.454 20.6642 184.648 21.0308C184.843 21.3974 184.964 21.7988 185.003 22.2121V22.4371C183.955 21.8702 182.782 21.5738 181.59 21.5746C178.453 21.5746 175.253 23.2996 175.253 26.5746C175.253 29.5246 177.815 31.4246 180.715 31.4246C181.54 31.477 182.364 31.3047 183.1 30.9261C183.835 30.5476 184.454 29.9768 184.89 29.2746H185.015V30.9746H188.215V22.4996C188.215 18.5871 185.29 16.4121 181.515 16.4121L181.49 16.3496ZM181.103 28.4246C180.028 28.4246 178.528 27.8746 178.528 26.5496C178.528 24.8496 180.39 24.1996 182.015 24.1996C183.063 24.1716 184.1 24.4263 185.015 24.9371C184.894 25.893 184.432 26.7728 183.712 27.4139C182.993 28.0551 182.066 28.4141 181.103 28.4246ZM62.5777 31.3996C59.4672 31.4098 56.478 30.1941 54.2576 28.0159C52.0372 25.8376 50.7645 22.8722 50.7151 19.7621C50.7645 16.652 52.0372 13.6866 54.2576 11.5083C56.478 9.33004 59.4672 8.11434 62.5777 8.12459C64.0598 8.09991 65.5319 8.37134 66.9078 8.92298C68.2837 9.47461 69.5356 10.2954 70.5902 11.3371L68.3276 13.5746C66.7931 12.0709 64.7261 11.2351 62.5777 11.2496C60.3333 11.2496 58.1808 12.1412 56.5938 13.7282C55.0067 15.3152 54.1152 17.4677 54.1152 19.7121C54.1152 21.9565 55.0067 24.109 56.5938 25.696C58.1808 27.283 60.3333 28.1746 62.5777 28.1746C63.6699 28.2194 64.7594 28.0345 65.7757 27.6319C66.792 27.2293 67.7125 26.6178 68.4776 25.8371C69.495 24.7403 70.1079 23.3293 70.2151 21.8371H62.5777V18.7496H73.3276C73.4449 19.4054 73.4993 20.0709 73.4902 20.7371C73.5981 23.5042 72.6047 26.2012 70.7276 28.2371C69.6679 29.3076 68.3943 30.1426 66.9899 30.6875C65.5856 31.2325 64.0821 31.4751 62.5777 31.3996ZM90.1151 23.8996C90.1562 24.8995 89.9947 25.8973 89.6404 26.8332C89.2861 27.7691 88.7462 28.6237 88.0533 29.3456C87.3603 30.0676 86.5286 30.6421 85.608 31.0345C84.6875 31.4269 83.6971 31.6292 82.6964 31.6292C81.6957 31.6292 80.7053 31.4269 79.7848 31.0345C78.8642 30.6421 78.0325 30.0676 77.3395 29.3456C76.6466 28.6237 76.1067 27.7691 75.7524 26.8332C75.3981 25.8973 75.2366 24.8995 75.2777 23.8996C75.2366 22.8997 75.3981 21.9019 75.7524 20.966C76.1067 20.0301 76.6466 19.1755 77.3395 18.4536C78.0325 17.7316 78.8642 17.1571 79.7848 16.7647C80.7053 16.3723 81.6957 16.17 82.6964 16.17C83.6971 16.17 84.6875 16.3723 85.608 16.7647C86.5286 17.1571 87.3603 17.7316 88.0533 18.4536C88.7462 19.1755 89.2861 20.0301 89.6404 20.966C89.9947 21.9019 90.1562 22.8997 90.1151 23.8996ZM86.8651 23.8996C86.9203 23.3189 86.8535 22.7331 86.6691 22.1798C86.4847 21.6264 86.1867 21.1177 85.7942 20.6862C85.4017 20.2547 84.9234 19.9099 84.39 19.674C83.8565 19.4381 83.2797 19.3163 82.6964 19.3163C82.1131 19.3163 81.5363 19.4381 81.0028 19.674C80.4694 19.9099 79.9911 20.2547 79.5986 20.6862C79.2061 21.1177 78.9081 21.6264 78.7237 22.1798C78.5393 22.7331 78.4725 23.3189 78.5276 23.8996C78.4725 24.4803 78.5393 25.0661 78.7237 25.6194C78.9081 26.1728 79.2061 26.6815 79.5986 27.113C79.9911 27.5445 80.4694 27.8893 81.0028 28.1252C81.5363 28.3611 82.1131 28.4829 82.6964 28.4829C83.2797 28.4829 83.8565 28.3611 84.39 28.1252C84.9234 27.8893 85.4017 27.5445 85.7942 27.113C86.1867 26.6815 86.4847 26.1728 86.6691 25.6194C86.8535 25.0661 86.9203 24.4803 86.8651 23.8996ZM106.74 23.8996C106.74 25.8655 105.959 27.7509 104.569 29.141C103.179 30.5311 101.294 31.3121 99.3276 31.3121C97.3617 31.3121 95.4763 30.5311 94.0862 29.141C92.6961 27.7509 91.9151 25.8655 91.9151 23.8996C91.9151 21.9337 92.6961 20.0483 94.0862 18.6582C95.4763 17.268 97.3617 16.4871 99.3276 16.4871C101.294 16.4871 103.179 17.268 104.569 18.6582C105.959 20.0483 106.74 21.9337 106.74 23.8996ZM103.503 23.8996C103.558 23.3189 103.491 22.7331 103.307 22.1798C103.122 21.6264 102.824 21.1177 102.432 20.6862C102.039 20.2547 101.561 19.9099 101.027 19.674C100.494 19.4381 99.9172 19.3163 99.3339 19.3163C98.7506 19.3163 98.1738 19.4381 97.6403 19.674C97.1069 19.9099 96.6286 20.2547 96.2361 20.6862C95.8436 21.1177 95.5456 21.6264 95.3612 22.1798C95.1768 22.7331 95.11 23.3189 95.1651 23.8996C95.11 24.4803 95.1768 25.0661 95.3612 25.6194C95.5456 26.1728 95.8436 26.6815 96.2361 27.113C96.6286 27.5445 97.1069 27.8893 97.6403 28.1252C98.1738 28.3611 98.7506 28.4829 99.3339 28.4829C99.9172 28.4829 100.494 28.3611 101.027 28.1252C101.561 27.8893 102.039 27.5445 102.432 27.113C102.824 26.6815 103.122 26.1728 103.307 25.6194C103.491 25.0661 103.558 24.4803 103.503 23.8996ZM122.965 16.8621V30.3246C122.965 35.8496 119.678 38.1246 115.803 38.1246C114.382 38.1366 112.99 37.7274 111.802 36.9487C110.614 36.17 109.683 35.0568 109.128 33.7496L111.965 32.4996C112.259 33.2627 112.772 33.9223 113.439 34.3958C114.106 34.8693 114.898 35.1358 115.715 35.1621C118.215 35.1621 119.74 33.6246 119.74 30.7621V29.6871H119.615C119.125 30.2342 118.523 30.6701 117.85 30.9654C117.178 31.2608 116.45 31.4088 115.715 31.3996C113.726 31.3996 111.818 30.6094 110.412 29.2029C109.005 27.7964 108.215 25.8887 108.215 23.8996C108.215 21.9105 109.005 20.0028 110.412 18.5963C111.818 17.1898 113.726 16.3996 115.715 16.3996C116.455 16.3833 117.189 16.5242 117.87 16.813C118.551 17.1017 119.163 17.5317 119.665 18.0746H119.79V16.8246H122.965V16.8621ZM120.053 23.9371C120.099 23.3714 120.03 22.8022 119.852 22.2633C119.674 21.7245 119.389 21.2269 119.015 20.8002C118.641 20.3735 118.184 20.0263 117.673 19.7793C117.162 19.5322 116.607 19.3904 116.04 19.3621C115.462 19.3812 114.894 19.5154 114.368 19.7568C113.843 19.9982 113.371 20.3419 112.98 20.7679C112.589 21.1939 112.286 21.6936 112.091 22.2377C111.895 22.7819 111.81 23.3596 111.84 23.9371C111.813 24.5107 111.901 25.0838 112.099 25.6229C112.297 26.162 112.6 26.6563 112.991 27.0766C113.382 27.4969 113.854 27.8348 114.377 28.0706C114.901 28.3064 115.466 28.4352 116.04 28.4496C116.604 28.4278 117.157 28.2923 117.667 28.0515C118.177 27.8106 118.633 27.4692 119.007 27.0478C119.382 26.6264 119.668 26.1336 119.847 25.5991C120.027 25.0646 120.097 24.4993 120.053 23.9371ZM128.753 8.92459V30.9371H125.453V8.92459H128.753ZM141.753 26.3746L144.328 28.0746C143.64 29.1006 142.71 29.9409 141.62 30.5209C140.529 31.101 139.313 31.4028 138.078 31.3996C137.095 31.4137 136.12 31.2282 135.211 30.8545C134.303 30.4808 133.479 29.9266 132.791 29.2255C132.103 28.5243 131.564 27.6908 131.207 26.7754C130.85 25.8599 130.683 24.8816 130.715 23.8996C130.569 22.2114 131.049 20.5284 132.064 19.1713C133.079 17.8143 134.557 16.8782 136.218 16.5414C137.879 16.2047 139.605 16.4908 141.069 17.3452C142.532 18.1997 143.63 19.5628 144.153 21.1746L144.49 22.0371L134.49 26.1746C134.802 26.875 135.316 27.466 135.966 27.8715C136.617 28.277 137.374 28.4783 138.14 28.4496C138.869 28.4382 139.583 28.2418 140.214 27.8788C140.846 27.5158 141.376 26.9982 141.753 26.3746ZM133.865 23.6746L140.59 20.8996C140.33 20.3901 139.926 19.9682 139.428 19.6861C138.93 19.4039 138.361 19.2739 137.79 19.3121C137.244 19.336 136.709 19.4683 136.215 19.7015C135.721 19.9346 135.278 20.2639 134.913 20.67C134.547 21.0762 134.266 21.551 134.087 22.0669C133.907 22.5828 133.831 23.1293 133.865 23.6746Z" fill="#5F6368"/>
        <path d="M17.6402 19.0996L0.865234 36.6746C1.0536 37.3422 1.39211 37.9579 1.85489 38.4746C2.31768 38.9914 2.89248 39.3954 3.53537 39.656C4.17825 39.9165 4.8722 40.0266 5.56415 39.9778C6.2561 39.9291 6.92775 39.7227 7.52773 39.3746L26.4027 28.6246L17.6402 19.0996Z" fill="#EA4335"/>
        <path d="M34.6026 16.1125L26.4401 11.4375L17.2526 19.5L26.4776 28.6L34.5776 23.975C35.2952 23.5993 35.8963 23.0343 36.3157 22.3413C36.7351 21.6483 36.9568 20.8538 36.9568 20.0437C36.9568 19.2337 36.7351 18.4392 36.3157 17.7462C35.8963 17.0532 35.2952 16.4882 34.5776 16.1125H34.6026Z" fill="#FBBC04"/>
        <path d="M0.865137 3.3252C0.763736 3.70006 0.713282 4.08687 0.715137 4.4752V35.5252C0.716151 35.9133 0.766556 36.2998 0.865137 36.6752L18.2151 19.5502L0.865137 3.3252Z" fill="#4285F4"/>
        <path d="M17.7652 20L26.4402 11.4375L7.59023 0.637509C6.88109 0.222184 6.07455 0.00221731 5.25273 8.94017e-06C4.26021 -0.00195794 3.29427 0.320669 2.50214 0.918709C1.71002 1.51675 1.13518 2.3574 0.865234 3.31251L17.7652 20Z" fill="#34A853"/>
    </g>
    <defs>
        <clipPath id="clip0_567_10193">
            <rect width="202.85" height="40" fill="white" transform="translate(0.714966)"/>
        </clipPath>
    </defs>
</svg>
