<svg width="94" height="88" viewBox="0 0 94 88" fill="none" xmlns="http://www.w3.org/2000/svg">
<path fill-rule="evenodd" clip-rule="evenodd" d="M9.5 31.4951C7.0125 31.4951 4.62812 32.4826 2.87187 34.242C1.1125 35.9982 0.125 38.3826 0.125 40.8701V78.3701C0.125 80.8576 1.1125 83.242 2.87187 84.9982C4.62812 86.7576 7.0125 87.7451 9.5 87.7451H65.75C68.2375 87.7451 70.6219 86.7576 72.3781 84.9982C74.1375 83.242 75.125 80.8576 75.125 78.3701V72.1232C77.6125 72.1232 79.9969 71.1357 81.7531 69.3764C83.5125 67.6201 84.5 65.2357 84.5 62.7482V56.4951C86.9875 56.4951 89.3719 55.5076 91.1312 53.7482C92.8875 51.9889 93.875 49.6045 93.875 47.1201V9.62012C93.875 7.13262 92.8875 4.74824 91.1312 2.98887C89.3719 1.23262 86.9875 0.245117 84.5 0.245117C71.4281 0.245117 41.325 0.245117 28.25 0.245117C25.7656 0.245117 23.3781 1.23262 21.6219 2.98887C19.8625 4.74824 18.875 7.13262 18.875 9.62012V15.8732C16.3875 15.8732 14.0031 16.8607 12.2469 18.6201C10.4875 20.3764 9.5 22.7607 9.5 25.2482V31.4951ZM49.9312 59.0764L43.8688 64.4857C40.3125 67.6607 34.9375 67.6607 31.3813 64.4857L26.9406 60.5232L10.1219 81.4951H65.3438L49.9312 59.0764ZM6.375 76.1764L22.2719 56.3576L6.375 42.167V76.1764ZM54.6312 54.8795L68.875 75.6014V42.167L54.6312 54.8795ZM10.8063 37.7451L35.5437 59.8232C36.7281 60.8826 38.5219 60.8826 39.7063 59.8232L64.4438 37.7451H10.8063ZM70.9437 33.067C71.4563 33.4076 71.9375 33.7982 72.3781 34.242C74.1375 35.9982 75.125 38.3826 75.125 40.8701V55.4326L78.25 59.9795V26.5451L70.9437 33.067ZM80.3156 17.442C80.8281 17.7826 81.3125 18.1764 81.7531 18.6201C83.5125 20.3764 84.5 22.7607 84.5 25.2482V39.8045L87.625 44.3482V10.9139L80.3156 17.442ZM30.6844 31.4951H63.3187L73.8188 22.1232H20.1844L30.6844 31.4951ZM15.75 31.4951H21.2969L15.75 26.5451V31.4951ZM40.0656 15.8732H72.6844L83.1938 6.49512H29.5594L40.0656 15.8732ZM25.125 15.8732H30.6812L25.125 10.9139V15.8732Z" fill="#6879FF"/>
</svg>
